HIERARCHY
ROOT Hip
{
    OFFSET 0.0 0.0 0.0
    CHANNELS 6 Xposition Yposition Zposition Zrotation Xrotation Yrotation
    JOINT RightHip
    {
        OFFSET -14.46761417388916 0.0 0.0
        CHANNELS 3 Zrotation Xrotation Yrotation
        JOINT RightKnee
        {
            OFFSET 0.0 0.0 -45.8013916015625
            CHANNELS 3 Zrotation Xrotation Yrotation
            JOINT RightAnkle
            {
                OFFSET 0.0 0.0 -44.579383850097656
                CHANNELS 3 Zrotation Xrotation Yrotation
                End Site
                {
                    OFFSET 0.0 -17.83175277709961 0.0
                }
            }
        }
    }
    JOINT LeftHip
    {
        OFFSET 14.46761417388916 0.0 0.0
        CHANNELS 3 Zrotation Xrotation Yrotation
        JOINT LeftKnee
        {
            OFFSET 0.0 0.0 -45.8013916015625
            CHANNELS 3 Zrotation Xrotation Yrotation
            JOINT LeftAnkle
            {
                OFFSET 0.0 0.0 -44.579383850097656
                CHANNELS 3 Zrotation Xrotation Yrotation
                End Site
                {
                    OFFSET 0.0 -17.83175277709961 0.0
                }
            }
        }
    }
    JOINT Spine
    {
        OFFSET 0.0 0.0 24.38321304321289
        CHANNELS 3 Zrotation Xrotation Yrotation
        JOINT Thorax
        {
            OFFSET 0.0 0.0 24.166622161865234
            CHANNELS 3 Zrotation Xrotation Yrotation
            JOINT Neck
            {
                OFFSET 0.0 0.0 12.17811393737793
                CHANNELS 3 Zrotation Xrotation Yrotation
                End Site
                {
                    OFFSET 0.0 0.0 4.871245861053467
                }
            }
            JOINT LeftShoulder
            {
                OFFSET 15.442316055297852 0.0 0.0
                CHANNELS 3 Zrotation Xrotation Yrotation
                JOINT LeftElbow
                {
                    OFFSET 28.792964935302734 0.0 0.0
                    CHANNELS 3 Zrotation Xrotation Yrotation
                    JOINT LeftWrist
                    {
                        OFFSET 23.485233306884766 0.0 0.0
                        CHANNELS 3 Zrotation Xrotation Yrotation
                        End Site
                        {
                            OFFSET 9.394094467163086 0.0 0.0
                        }
                    }
                }
            }
            JOINT RightShoulder
            {
                OFFSET -15.442316055297852 0.0 0.0
                CHANNELS 3 Zrotation Xrotation Yrotation
                JOINT RightElbow
                {
                    OFFSET -28.792964935302734 0.0 0.0
                    CHANNELS 3 Zrotation Xrotation Yrotation
                    JOINT RightWrist
                    {
                        OFFSET -23.485233306884766 0.0 0.0
                        CHANNELS 3 Zrotation Xrotation Yrotation
                        End Site
                        {
                            OFFSET -9.394094467163086 0.0 0.0
                        }
                    }
                }
            }
        }
    }
}
MOTION
Frames: 18
Frame Time: 0.03333333333333333
0.005449188324725707 0.12200483639479776 0.903384591471201 -94.00437924 -55.52669218 -90.8506807 -0.0129815 1.76021888 4.29458652 2.01192678 27.36520301 -14.66045474 0.0 0.0 0.0 0.0361825 -5.30464132 -4.88621377 -6.35401391 49.8357832 13.1756896 0.0 0.0 0.0 -0.19286108 24.30457233 -3.98403171 -4.40335369 -1.35e-06 1.11e-06 6.38654225 -1.27585273 0.62914013 11.27611309 -24.88927968 51.80859455 -116.23637807 -3.17e-06 2.96e-06 0.0 0.0 0.0 -11.8090869 -20.47273904 -54.24988591 64.90551854 4.33e-06 2.97e-06 0.0 0.0 0.0
0.05376488693393193 0.12196139782810847 2.017753797949942 -92.23877774 -55.09497841 -89.46582185 0.00256352 -0.28338947 4.4144002 2.09789952 29.63448359 -14.86409098 0.0 0.0 0.0 0.10811582 -8.39044034 -4.19680437 -6.87700132 54.04411494 12.03420821 0.0 0.0 0.0 -0.33722029 24.35342509 -3.9838688 -4.41667579 1.05e-06 -1.56e-06 5.58456716 -2.41131062 0.67358274 9.07256329 -24.40318789 48.52375327 -114.74312727 -3.3e-07 -7.1e-07 0.0 0.0 0.0 -11.88942556 -22.29321935 -52.3800394 67.24650721 3.46e-06 1.5e-06 0.0 0.0 0.0
0.10999740006075834 0.12177991418358108 4.3879541903319765 -89.54391945 -54.56885387 -87.7141528 0.08519324 -2.91716937 5.36829378 2.45140221 32.24999353 -15.54400087 0.0 0.0 0.0 0.32096483 -11.77329108 -2.62415437 -6.82424718 58.45000998 9.54831241 0.0 0.0 0.0 -0.64733412 23.3848776 -4.10191989 -3.74707518 1.46e-06 -1.3e-06 3.86303131 -3.67506247 0.81582921 7.09037254 -24.24214647 44.47642565 -109.14687652 2.65e-06 1.28e-06 0.0 0.0 0.0 -10.69787496 -24.86963264 -48.38662616 69.16430126 -1.94e-06 2.5e-06 0.0 0.0 0.0
0.17626761632932295 0.12158038646633329 6.97121163582183 -86.58424177 -53.66310786 -86.50735485 0.31076768 -5.79844019 7.80873263 3.31808389 34.18391654 -17.06933442 0.0 0.0 0.0 0.77224167 -14.47543315 -0.30460516 -6.08460457 61.05523763 7.10025374 0.0 0.0 0.0 -1.18142096 21.8848215 -3.11369648 -2.7267031 -8.1e-07 -8.1e-07 3.64440736 -4.59680379 0.75670585 5.40989643 -22.85760232 41.41920968 -93.07824972 1.63e-06 1.41e-06 0.0 0.0 0.0 -6.69679789 -27.64676162 -43.67513986 67.18568465 -2.42e-06 2.2e-07 0.0 0.0 0.0
0.24841885566496402 0.12152927251849963 7.689139557474875 -83.87706273 -52.50610252 -85.92995723 0.59019226 -8.05103695 10.78494014 4.68341049 35.24821288 -18.0317742 0.0 0.0 0.0 1.27860727 -16.976194 2.17714199 -4.05499591 61.42270602 4.80481214 0.0 0.0 0.0 -1.57873169 20.71547946 -1.25527864 -0.89739421 7.5e-07 -2.74e-06 3.14089726 -6.08311544 0.45483194 2.55062097 -12.2970271 39.82205969 -70.56876809 1.23e-06 2.9e-07 0.0 0.0 0.0 -1.49198607 -28.46700159 -37.70216021 63.46636887 -1e-07 -1.18e-06 0.0 0.0 0.0
0.24890786563042666 0.12128337403920218 5.222668432875712 -82.04650028 -51.62227193 -86.11146939 0.80331326 -9.53464283 13.90637852 6.39131171 34.92482669 -19.45788643 0.0 0.0 0.0 1.66477565 -19.12963319 4.6259317 -0.84844044 58.7635071 0.99781331 0.0 0.0 0.0 -1.74423834 19.97040512 1.41818529 1.24985823 -1.04e-06 -4.29e-06 0.62709981 -7.73604493 -0.8358005 -1.32124369 -1.336468 43.05440633 -46.51288611 1.43e-06 -4e-07 0.0 0.0 0.0 5.02198821 -28.16187949 -32.88171958 58.72042101 -1.58e-06 5.5e-07 0.0 0.0 0.0
0.23757505811788493 0.12115119301594321 1.3312687946341621 -82.29342597 -51.3219494 -87.76740503 0.90303281 -9.89687558 16.28974455 7.80082051 34.77474893 -21.00312696 0.0 0.0 0.0 1.92032197 -20.27322711 6.6378585 1.49237992 54.17269511 -2.14648514 0.0 0.0 0.0 -1.94684395 20.48921996 4.6954688 2.41174321 3.1e-07 -9e-08 -1.97796953 -9.07746071 -2.29563038 -8.6472584 5.54356105 45.80198262 -34.27404703 1e-08 6.2e-07 0.0 0.0 0.0 9.28638107 -27.58027162 -32.48076937 53.3413684 -1.54e-06 1.02e-06 0.0 0.0 0.0
0.19873990385154883 0.12121650852689655 -4.273218218081647 -83.57631237 -52.15581697 -89.86776172 0.94269198 -9.44717777 17.96682384 8.7209924 34.85056988 -22.49017489 0.0 0.0 0.0 2.18255577 -21.04371156 7.85429182 2.0864636 48.85026383 -4.01120749 0.0 0.0 0.0 -2.39227599 22.88042251 8.43750384 2.19513711 6.1e-07 1.2e-07 -2.78997476 -10.67309249 -4.39533542 -11.99226981 2.8720224 48.20016024 -29.75409037 -6.7e-07 -3.4e-07 0.0 0.0 0.0 11.07538635 -27.85405158 -36.95012836 47.882866 -4.69e-06 1.84e-06 0.0 0.0 0.0
0.1316568683912976 0.12146295625961272 -11.375652183982119 -84.19331267 -52.84345844 -90.07130857 0.87102006 -9.7452682 17.71211112 9.36872635 36.07617403 -23.9681402 0.0 0.0 0.0 2.13771184 -22.7731888 7.27066963 1.76292076 44.80858608 -4.04166342 0.0 0.0 0.0 -2.47904692 26.04973407 10.83963518 1.13171926 2.27e-06 -5.5e-07 -0.95446214 -12.96815658 -5.60443201 -15.39164977 -1.22872624 50.1124196 -27.26712632 2.7e-07 1.27e-06 0.0 0.0 0.0 11.15503773 -28.61644226 -43.0976705 44.62251215 -2.73e-06 7.4e-07 0.0 0.0 0.0
0.08355325389928711 0.12179628358815706 -20.941704949438115 -82.66264029 -53.34807401 -87.11214835 0.80809496 -11.99281084 15.71133659 10.03723486 39.87751964 -25.33027169 0.0 0.0 0.0 1.87821883 -26.0154233 5.57866841 1.21010605 43.54991629 -2.814198 0.0 0.0 0.0 -2.13507508 29.07595043 11.0997182 -0.07007036 1.43e-06 1.1e-06 1.47367681 -15.33141112 -5.11524579 -20.50221985 -5.12438871 50.78658158 -25.66516486 2e-08 -9.4e-07 0.0 0.0 0.0 11.9036552 -29.81555483 -49.04427014 41.95829611 -1.88e-06 2.2e-07 0.0 0.0 0.0
0.04096074443299634 0.12218748537594655 -33.31717519903442 -80.9735374 -54.42008018 -83.25401091 0.52377325 -13.43125096 12.96043435 10.6647328 44.30632615 -26.59763506 0.0 0.0 0.0 1.22752175 -29.47547826 3.51372682 0.94772357 43.69000959 -2.24827612 0.0 0.0 0.0 -1.35923452 32.25006733 9.86899902 -0.80401285 -3.4e-06 1.03e-06 3.82432992 -17.72183596 -4.2647079 -25.96264782 -9.00417168 50.82632118 -25.08901316 3.26e-06 6.4e-07 0.0 0.0 0.0 17.39189324 -29.01300199 -52.96728826 36.64340224 -8.1e-07 8.4e-07 0.0 0.0 0.0
-0.009348057833283073 0.12262399492332535 -45.567943181893014 -79.55177508 -56.10554448 -80.17254421 0.16421071 -13.78849488 10.49993629 11.27908289 48.44787595 -26.97597771 0.0 0.0 0.0 0.42896172 -32.72361698 2.70148488 1.81743656 43.70272211 -3.62179755 0.0 0.0 0.0 -0.45584939 34.42115034 8.86181956 -0.17314445 -1e-07 1.33e-06 4.69244896 -19.59700572 -3.51895396 -30.81291063 -11.31902397 50.6739953 -25.45128449 3.28e-06 1.51e-06 0.0 0.0 0.0 25.52866016 -27.92163577 -54.1431396 29.65546313 6.5e-07 9.3e-07 0.0 0.0 0.0
-0.08015715230133877 0.12312121095215676 -56.30536661561559 -76.68745882 -57.76627648 -76.79212922 -0.07459876 -14.70929081 8.70258959 11.59300496 51.74896197 -25.86767203 0.0 0.0 0.0 -0.19398153 -35.97378052 3.15290076 3.34453567 43.79362147 -6.33805331 0.0 0.0 0.0 0.18635854 35.00836084 10.00338623 1.06227232 1e-07 1.9e-07 2.02216807 -21.27934375 -5.22491686 -33.42463398 -13.19268119 50.59134855 -25.06252796 1.8e-07 6e-08 0.0 0.0 0.0 31.14103035 -30.19004949 -55.61060794 25.14613061 2.25e-06 1.03e-06 0.0 0.0 0.0
-0.15410805156459847 0.12335839017318524 -64.07671150896175 -74.8578895 -59.09026289 -74.24314177 -0.35656119 -14.3345599 6.98051574 11.491399 53.33198336 -25.09501588 0.0 0.0 0.0 -1.04917602 -37.10861348 3.78546328 5.25157498 43.50007888 -10.21593917 0.0 0.0 0.0 0.95266919 34.51794902 11.34730097 2.15921611 1.76e-06 -5.6e-07 -2.16414556 -21.25205571 -8.32800507 -30.44151579 -15.49239865 52.41366243 -23.68212232 -1.3e-06 -2.9e-07 0.0 0.0 0.0 34.13065712 -33.19467762 -57.52599061 23.2216359 -1.12e-06 -1.7e-07 0.0 0.0 0.0
-0.24503941738956686 0.12329778270344453 -63.97265793691123 -75.53679735 -59.65877984 -73.34817516 -0.62323128 -12.83060921 4.92637288 10.82072634 54.05120811 -24.07730534 0.0 0.0 0.0 -1.98485727 -36.05235208 3.68931148 6.4661378 42.32869901 -13.91149711 0.0 0.0 0.0 1.83400287 33.79849047 11.98617415 3.29816262 -3.8e-07 -6.5e-07 -5.39893048 -19.62449326 -11.16899157 -22.1675344 -18.5434187 55.10080129 -21.8306273 -8.2e-07 1.8e-06 0.0 0.0 0.0 35.10849154 -34.77544546 -59.43408813 22.54589336 -1.44e-06 1.63e-06 0.0 0.0 0.0
-0.3216050483238374 0.12302544294908493 -58.379221492406025 -78.69442329 -59.35056091 -74.29916678 -0.76552841 -10.47308222 2.60593983 9.8310972 54.87715045 -23.22816003 0.0 0.0 0.0 -2.69401106 -33.06905773 2.50520847 6.33487111 40.16000949 -15.65384484 0.0 0.0 0.0 2.74850514 33.4018709 12.15926969 5.13399915 3e-08 -2.8e-07 -7.0770876 -17.45507612 -13.05884059 -10.58450904 -22.17675487 57.65509545 -20.63141223 -1.1e-06 4.53e-06 0.0 0.0 0.0 34.55108554 -34.92228567 -61.17421301 21.64443935 1.81e-06 1.45e-06 0.0 0.0 0.0
-0.3767219530532914 0.12262066179505646 -50.194299517301346 -82.66824319 -58.70240584 -75.74381135 -0.78936448 -7.8170449 0.21886552 8.89373139 55.26972667 -22.17575036 0.0 0.0 0.0 -3.2218408 -29.09062199 0.4811295 5.55536073 37.71183449 -15.66553543 0.0 0.0 0.0 3.86818889 33.46165781 11.82686226 7.03339051 5.25e-06 6.7e-07 -8.74782059 -14.9410587 -14.27380324 -0.14178942 -24.65845044 59.36063604 -19.75217182 1.67e-06 3.65e-06 0.0 0.0 0.0 32.64820041 -34.41364396 -63.49581127 20.62275351 2.3e-07 -6.7e-07 0.0 0.0 0.0
-0.41842980355860115 0.12237512920447025 -41.555109440815656 -86.15892668 -58.36131439 -77.11167012 -0.66882356 -5.31703281 -1.67374586 7.82712966 54.54040179 -21.30167176 0.0 0.0 0.0 -3.40419182 -25.34485173 -1.40310191 4.67772687 35.56665181 -14.68730268 0.0 0.0 0.0 4.83462384 33.85685618 11.13218337 8.10421344 -4e-08 -2.7e-07 -10.40950729 -12.63542599 -14.86548191 8.88266754 -27.97209475 61.41233149 -18.98718649 5.8e-07 -1.79e-06 0.0 0.0 0.0 32.76481873 -33.49931863 -64.25459369 19.28589546 2.2e-06 -4.96e-06 0.0 0.0 0.0
